<svg width="609" height="706" xmlns="http://www.w3.org/2000/svg" xmlns:xlink="http://www.w3.org/1999/xlink" xml:space="preserve" overflow="hidden"><g transform="translate(-2076 -1228)"><g><path d="M2381.5 1238 2676 1385.25 2676 1774.75 2381.5 1922 2087 1774.75 2087 1385.25Z" stroke="#FFFFFF" stroke-width="16.0417" stroke-linecap="butt" stroke-linejoin="miter" stroke-miterlimit="8" stroke-opacity="1" fill="#0F172A" fill-rule="evenodd" fill-opacity="1"/><path d="M123 0 99.0803 0 0 287 23.9198 287Z" stroke="#FFFFFF" stroke-width="6.875" stroke-linecap="butt" stroke-linejoin="miter" stroke-miterlimit="8" stroke-opacity="1" fill="#FFFFFF" fill-rule="evenodd" fill-opacity="1" transform="matrix(-1 0 0 1 2562.5 1400.5)"/><rect x="2290.5" y="1402.5" width="25" height="358" stroke="#FFFFFF" stroke-width="6.875" stroke-linecap="butt" stroke-linejoin="miter" stroke-miterlimit="8" stroke-opacity="1" fill="#FFFFFF" fill-opacity="1"/><path d="M2315.5 1760.5 2438.63 1402.5 2462.5 1402.5 2339.37 1760.5Z" stroke="#FFFFFF" stroke-width="6.875" stroke-linecap="butt" stroke-linejoin="miter" stroke-miterlimit="8" stroke-opacity="1" fill="#FFFFFF" fill-rule="evenodd" fill-opacity="1"/><path d="M2193.8 1457.79C2179.59 1446.85 2176.94 1426.45 2187.89 1412.24 2198.83 1398.03 2219.22 1395.38 2233.44 1406.33 2247.65 1417.27 2250.3 1437.66 2239.35 1451.88 2228.41 1466.09 2208.01 1468.74 2193.8 1457.79Z" fill="#FFFFFF" fill-rule="evenodd" fill-opacity="1"/><path d="M2203.71 1444.93C2196.6 1439.45 2195.28 1429.26 2200.75 1422.15 2206.22 1415.04 2216.42 1413.72 2223.53 1419.19 2230.63 1424.66 2231.96 1434.86 2226.49 1441.97 2221.01 1449.07 2210.82 1450.4 2203.71 1444.93Z" fill="#0F172A" fill-rule="evenodd" fill-opacity="1"/><path d="M2212 1456 2212 1669.4" stroke="#FFFFFF" stroke-width="18.3333" stroke-linecap="butt" stroke-linejoin="miter" stroke-miterlimit="8" stroke-opacity="1" fill="none" fill-rule="evenodd"/><path d="M2190.28 1724.27C2176.07 1713.32 2173.42 1692.93 2184.37 1678.71 2195.31 1664.5 2215.7 1661.85 2229.92 1672.8 2244.13 1683.74 2246.78 1704.14 2235.83 1718.35 2224.89 1732.56 2204.49 1735.21 2190.28 1724.27Z" fill="#000000" fill-rule="evenodd" fill-opacity="1"/><path d="M2200.19 1711.4C2193.08 1705.93 2191.76 1695.73 2197.23 1688.62 2202.7 1681.52 2212.9 1680.19 2220.01 1685.66 2227.11 1691.14 2228.44 1701.33 2222.97 1708.44 2217.49 1715.55 2207.3 1716.87 2200.19 1711.4Z" fill="#FFFFFF" fill-rule="evenodd" fill-opacity="1"/><path d="M2181.64 1700.52 2371.12 1591.12 2384.12 1613.62 2194.64 1723.02Z" stroke="#0F172A" stroke-width="6.875" stroke-linecap="butt" stroke-linejoin="miter" stroke-miterlimit="8" stroke-opacity="1" fill="#FFFFFF" fill-rule="nonzero" fill-opacity="1"/><path d="M2178.08 1694.69C2180.45 1676.91 2196.79 1664.42 2214.57 1666.79 2232.35 1669.16 2244.84 1685.5 2242.47 1703.28 2240.1 1721.06 2223.76 1733.55 2205.98 1731.18 2188.2 1728.81 2175.71 1712.47 2178.08 1694.69Z" fill="#FFFFFF" fill-rule="evenodd" fill-opacity="1"/><path d="M2194.18 1696.84C2195.37 1687.95 2203.53 1681.7 2212.43 1682.89 2221.32 1684.07 2227.56 1692.24 2226.38 1701.13 2225.19 1710.02 2217.02 1716.27 2208.13 1715.08 2199.24 1713.9 2192.99 1705.73 2194.18 1696.84Z" fill="#0F172A" fill-rule="evenodd" fill-opacity="1"/><rect x="0" y="0" width="218.794" height="25.9843" stroke="#0F172A" stroke-width="6.875" stroke-linecap="butt" stroke-linejoin="miter" stroke-miterlimit="8" stroke-opacity="1" fill="#FFFFFF" fill-opacity="1" transform="matrix(-0.866025 -0.5 -0.5 0.866025 2581.26 1700.73)"/><path d="M0 32.4803C-8.27036e-15 14.5419 14.5419-4.13518e-15 32.4803-4.13518e-15 50.4187-8.27036e-15 64.9606 14.5419 64.9606 32.4803 64.9606 50.4187 50.4187 64.9606 32.4803 64.9606 14.5419 64.9606-1.65407e-14 50.4187 0 32.4803Z" fill="#2563EB" fill-rule="evenodd" fill-opacity="1" transform="matrix(-0.991217 0.132249 0.132249 0.991217 2580.53 1662.71)"/><path d="M2416.08 1617.57C2406.57 1636.88 2383.21 1644.83 2363.9 1635.33 2344.58 1625.82 2336.63 1602.46 2346.14 1583.14 2355.64 1563.83 2379.01 1555.88 2398.32 1565.39 2417.63 1574.89 2425.58 1598.26 2416.08 1617.57Z" stroke="#FFFFFF" stroke-width="6.875" stroke-linecap="butt" stroke-linejoin="miter" stroke-miterlimit="8" stroke-opacity="1" fill="#000000" fill-rule="evenodd" fill-opacity="1"/><path d="M2348.91 1596.06C2351.28 1578.28 2367.62 1565.79 2385.4 1568.16 2403.18 1570.53 2415.67 1586.87 2413.3 1604.65 2410.93 1622.43 2394.59 1634.92 2376.81 1632.55 2359.03 1630.18 2346.54 1613.84 2348.91 1596.06Z" fill="#000000" fill-rule="evenodd" fill-opacity="1"/><path d="M2365.01 1598.21C2366.2 1589.32 2374.36 1583.07 2383.25 1584.26 2392.15 1585.45 2398.39 1593.61 2397.2 1602.5 2396.02 1611.39 2387.85 1617.64 2378.96 1616.45 2370.07 1615.27 2363.82 1607.1 2365.01 1598.21Z" fill="#FFFFFF" fill-rule="evenodd" fill-opacity="1"/></g></g></svg>