<svg width="609" height="711" xmlns="http://www.w3.org/2000/svg" xmlns:xlink="http://www.w3.org/1999/xlink" xml:space="preserve" overflow="hidden"><g transform="translate(-275 -187)"><g><path d="M581 201 876 348.5 876 737.5 581 885 286 737.5 286 348.5Z" stroke="#0F172A" stroke-width="16.0417" stroke-linecap="butt" stroke-linejoin="miter" stroke-miterlimit="8" stroke-opacity="1" fill="#FFFFFF" fill-rule="evenodd" fill-opacity="1"/><path d="M123 0 99.0803 0 0 287 23.9198 287Z" stroke="#0F172A" stroke-width="6.875" stroke-linecap="butt" stroke-linejoin="miter" stroke-miterlimit="8" stroke-opacity="1" fill="#0F172A" fill-rule="evenodd" fill-opacity="1" transform="matrix(-1 0 0 1 762.5 363.5)"/><rect x="490.5" y="365.5" width="25.0001" height="358" stroke="#0F172A" stroke-width="6.875" stroke-linecap="butt" stroke-linejoin="miter" stroke-miterlimit="8" stroke-opacity="1" fill="#0F172A" fill-opacity="1"/><path d="M515.5 723.5 638.633 365.5 662.5 365.5 539.367 723.5Z" stroke="#0F172A" stroke-width="6.875" stroke-linecap="butt" stroke-linejoin="miter" stroke-miterlimit="8" stroke-opacity="1" fill="#0F172A" fill-rule="evenodd" fill-opacity="1"/><path d="M393.717 420.822C379.505 409.877 376.856 389.483 387.801 375.27 398.746 361.058 419.14 358.409 433.352 369.354 447.565 380.299 450.214 400.693 439.269 414.905 428.324 429.118 407.93 431.767 393.717 420.822Z" fill="#0F172A" fill-rule="evenodd" fill-opacity="1"/><path d="M403.626 407.955C396.52 402.482 395.195 392.285 400.668 385.179 406.14 378.073 416.337 376.748 423.443 382.221 430.55 387.693 431.874 397.89 426.402 404.996 420.929 412.103 410.732 413.427 403.626 407.955Z" fill="#FFFFFF" fill-rule="evenodd" fill-opacity="1"/><path d="M412 419 412.001 632.404" stroke="#0F172A" stroke-width="18.3333" stroke-linecap="butt" stroke-linejoin="miter" stroke-miterlimit="8" stroke-opacity="1" fill="none" fill-rule="evenodd"/><path d="M390.197 687.294C375.985 676.349 373.336 655.955 384.281 641.742 395.226 627.53 415.62 624.881 429.832 635.826 444.045 646.771 446.694 667.165 435.749 681.377 424.804 695.59 404.41 698.239 390.197 687.294Z" fill="#000000" fill-rule="evenodd" fill-opacity="1"/><path d="M400.106 674.427C393 668.954 391.675 658.757 397.148 651.651 402.62 644.545 412.817 643.22 419.924 648.693 427.03 654.165 428.354 664.362 422.882 671.469 417.409 678.575 407.212 679.899 400.106 674.427Z" fill="#FFFFFF" fill-rule="evenodd" fill-opacity="1"/><path d="M381.559 663.544 571.04 554.146 584.032 576.649 394.551 686.047Z" stroke="#FFFFFF" stroke-width="6.875" stroke-linecap="butt" stroke-linejoin="miter" stroke-miterlimit="8" stroke-opacity="1" fill="#0F172A" fill-rule="nonzero" fill-opacity="1"/><path d="M615.993 580.597C606.487 599.911 583.124 607.861 563.811 598.355 544.497 588.849 536.547 565.487 546.053 546.173 555.558 526.86 578.921 518.909 598.235 528.415 617.548 537.921 625.499 561.284 615.993 580.597Z" stroke="#FFFFFF" stroke-width="6.875" stroke-linecap="butt" stroke-linejoin="miter" stroke-miterlimit="8" stroke-opacity="1" fill="#000000" fill-rule="evenodd" fill-opacity="1"/><path d="M548.828 559.09C551.2 541.309 567.537 528.818 585.318 531.19 603.099 533.562 615.59 549.9 613.218 567.681 610.845 585.461 594.508 597.953 576.727 595.58 558.946 593.208 546.455 576.87 548.828 559.09Z" fill="#000000" fill-rule="evenodd" fill-opacity="1"/><path d="M564.925 561.237C566.111 552.347 574.28 546.101 583.17 547.288 592.061 548.474 598.306 556.642 597.12 565.533 595.934 574.423 587.765 580.669 578.875 579.483 569.984 578.297 563.739 570.128 564.925 561.237Z" fill="#FFFFFF" fill-rule="evenodd" fill-opacity="1"/><path d="M377.998 657.718C380.37 639.937 396.707 627.446 414.488 629.819 432.269 632.191 444.76 648.528 442.388 666.309 440.016 684.09 423.678 696.581 405.897 694.209 388.117 691.836 375.625 675.499 377.998 657.718Z" fill="#0F172A" fill-rule="evenodd" fill-opacity="1"/><path d="M394.095 659.866C395.281 650.976 403.45 644.73 412.341 645.916 421.231 647.102 427.477 655.271 426.29 664.162 425.104 673.052 416.935 679.297 408.045 678.111 399.155 676.925 392.909 668.756 394.095 659.866Z" fill="#FFFFFF" fill-rule="evenodd" fill-opacity="1"/><rect x="0" y="0" width="218.794" height="25.9843" stroke="#FFFFFF" stroke-width="6.875" stroke-linecap="butt" stroke-linejoin="miter" stroke-miterlimit="8" stroke-opacity="1" fill="#0F172A" fill-opacity="1" transform="matrix(-0.866025 -0.5 -0.5 0.866025 781.174 663.762)"/><path d="M0 38.9764C-9.92443e-15 17.4503 17.4503-4.96221e-15 38.9764-4.96221e-15 60.5024-9.92443e-15 77.9528 17.4503 77.9528 38.9764 77.9528 60.5024 60.5024 77.9528 38.9764 77.9528 17.4503 77.9528-1.98489e-14 60.5024 0 38.9764Z" stroke="#FFFFFF" stroke-width="6.875" stroke-linecap="butt" stroke-linejoin="miter" stroke-miterlimit="8" stroke-opacity="1" fill="#000000" fill-rule="evenodd" fill-opacity="1" transform="matrix(0.897213 -0.441599 -0.441599 -0.897213 563.952 615.785)"/><path d="M0 32.4803C-8.27036e-15 14.5419 14.5419-4.13518e-15 32.4803-4.13518e-15 50.4187-8.27036e-15 64.9606 14.5419 64.9606 32.4803 64.9606 50.4187 50.4187 64.9606 32.4803 64.9606 14.5419 64.9606-1.65407e-14 50.4187 0 32.4803Z" fill="#0F172A" fill-rule="evenodd" fill-opacity="1" transform="matrix(-0.991217 0.132249 0.132249 0.991217 609.61 527.113)"/><path d="M0 16.2402C-4.13518e-15 7.27097 7.27097-2.06759e-15 16.2402-2.06759e-15 25.2093-4.13518e-15 32.4803 7.27097 32.4803 16.2402 32.4803 25.2093 25.2093 32.4803 16.2402 32.4803 7.27097 32.4803-8.27036e-15 25.2093 0 16.2402Z" fill="#FFFFFF" fill-rule="evenodd" fill-opacity="1" transform="matrix(-0.991217 0.132249 0.132249 0.991217 595.66 545.358)"/><path d="M0 32.4803C-8.27036e-15 14.5419 14.5419-4.13518e-15 32.4803-4.13518e-15 50.4187-8.27036e-15 64.9606 14.5419 64.9606 32.4803 64.9606 50.4187 50.4187 64.9606 32.4803 64.9606 14.5419 64.9606-1.65407e-14 50.4187 0 32.4803Z" fill="#2563EB" fill-rule="evenodd" fill-opacity="1" transform="matrix(-0.991217 0.132249 0.132249 0.991217 780.44 625.741)"/></g></g></svg>